<svg width="280" height="320" xmlns="http://www.w3.org/2000/svg" xmlns:xlink="http://www.w3.org/1999/xlink"><defs><path id="a" d="M22.201 31.482V.927H.375v30.555h21.826z"/><path id="c" d="M0 263.29h255.201V0H0z"/></defs><g fill="none" fill-rule="evenodd"><path fill="#000" d="M0 0h280v320H0z"/><g transform="translate(12 28)"><path d="M.606 225.772a.608.608 0 0 1-.606-.606v-29.344c0-.333.273-.606.606-.606h3.152c.334 0 .607.273.607.606v29.344a.608.608 0 0 1-.607.606H.606zM42.375 225.772c-.333 0-.744-.235-.912-.523l-12.178-20.823c-.168-.288-.306-.251-.306.083v20.657a.608.608 0 0 1-.606.606h-3.109a.608.608 0 0 1-.607-.606v-29.344c0-.333.273-.606.607-.606h3.414c.334 0 .744.236.912.524l12.18 20.865c.167.289.304.25.304-.082v-20.701c0-.333.273-.606.607-.606h3.152c.334 0 .606.273.606.606v29.344a.608.608 0 0 1-.606.606h-3.458zM88.191 220.8c0 .334-.193.8-.429 1.036l-3.508 3.507c-.235.236-.701.429-1.034.429H71.293c-.333 0-.799-.193-1.035-.43l-3.464-3.462c-.236-.236-.429-.702-.429-1.035v-20.657c0-.333.193-.8.429-1.035l3.507-3.508c.236-.236.702-.428 1.036-.428H83.22c.333 0 .798.193 1.033.43l3.511 3.547c.235.237.427.704.427 1.037v3.953a.608.608 0 0 1-.606.607h-3.153a.608.608 0 0 1-.606-.607v-2.512c0-.333-.193-.8-.429-1.035l-.626-.627c-.236-.235-.702-.428-1.036-.428H72.69c-.333 0-.799.193-1.035.428l-.496.496c-.236.236-.429.7-.429 1.035v17.427c0 .333.193.799.429 1.035l.976.976c.236.236.702.428 1.035.428h8.26c.333 0 .799-.192 1.035-.428l.932-.933c.236-.236.429-.701.429-1.035v-4.338a.608.608 0 0 0-.606-.606h-3.983a.608.608 0 0 1-.606-.607v-3.152c0-.334.273-.607.606-.607h8.348c.333 0 .606.273.606.607V220.8zM125.528 201.672c0-.333-.194-.8-.43-1.035l-.626-.627c-.235-.235-.701-.428-1.034-.428h-10.4a.608.608 0 0 0-.606.606v8.74c0 .333.272.606.606.606h10.094c.332 0 .801-.191 1.04-.424l.922-.898c.239-.233.434-.697.434-1.03v-5.51zm.605 24.1a.608.608 0 0 1-.605-.606v-9.133c0-.334-.194-.8-.43-1.035l-.67-.67c-.236-.236-.701-.43-1.034-.43h-10.356a.608.608 0 0 0-.606.607v10.66a.608.608 0 0 1-.606.607h-3.152a.608.608 0 0 1-.607-.606v-29.344c0-.333.273-.606.607-.606h16.203c.335 0 .8.193 1.035.429l3.552 3.55c.236.237.429.703.429 1.036v8.697c0 .333-.194.799-.429 1.035l-1.37 1.369a.601.601 0 0 0 .006.853l1.36 1.333c.237.234.433.697.433 1.03v10.618a.608.608 0 0 1-.607.606h-3.153zM150.443 225.772a.608.608 0 0 1-.606-.606v-29.344c0-.333.273-.606.606-.606h20.613c.334 0 .607.273.607.606v3.153a.609.609 0 0 1-.607.607h-16.248a.608.608 0 0 0-.606.606v7.518c0 .333.273.606.606.606h12.276c.334 0 .606.273.606.606v3.152a.608.608 0 0 1-.606.607h-12.276a.608.608 0 0 0-.606.606v7.518c0 .333.273.606.606.606h16.248c.334 0 .607.273.607.606v3.153a.608.608 0 0 1-.607.606h-20.613zM213.432 220.845c0 .333-.193.799-.43 1.035l-3.463 3.464c-.236.235-.701.428-1.035.428H196.62c-.333 0-.8-.192-1.037-.426l-3.547-3.512c-.237-.235-.431-.7-.431-1.033v-3.175c0-.334.273-.606.607-.606h3.152c.334 0 .607.272.607.606v1.69c0 .334.195.797.434 1.029l.658.64c.24.232.708.422 1.04.422h9.004c.333 0 .799-.192 1.034-.428l.497-.496c.235-.236.428-.702.428-1.035v-4.681c0-.333-.193-.8-.428-1.034l-.627-.627c-.236-.236-.702-.43-1.035-.43H196.62c-.333 0-.8-.192-1.035-.428l-3.551-3.551c-.236-.236-.43-.702-.43-1.035v-7.474c0-.333.194-.8.43-1.035l3.508-3.508c.236-.236.7-.428 1.035-.428h11.883c.333 0 .798.193 1.033.43l3.51 3.547c.236.237.428.704.428 1.037v3.089a.608.608 0 0 1-.606.606h-3.153a.608.608 0 0 1-.606-.606v-1.648c0-.333-.193-.8-.428-1.035l-.627-.626c-.236-.236-.702-.43-1.035-.43h-9.003c-.333 0-.798.194-1.034.43l-.496.495c-.236.236-.431.7-.433 1.035l-.035 4.68c-.002.334.188.8.424 1.036l.627.627c.236.235.7.428 1.035.428h10.399c.333 0 .798.194 1.033.43l3.51 3.548c.236.237.428.703.428 1.037v7.518z" fill="#FFF"/><g transform="translate(233 194.29)"><mask id="b" fill="#fff"><use xlink:href="#a"/></mask><path d="M22.201 26.555c0 .333-.193.799-.429 1.035l-3.464 3.464c-.235.235-.7.428-1.035.428H5.39c-.333 0-.799-.192-1.037-.426L.806 27.544c-.236-.235-.43-.7-.43-1.033v-3.175c0-.334.272-.606.606-.606h3.152c.334 0 .607.272.607.606v1.69c0 .334.195.797.434 1.029l.66.64c.238.232.706.422 1.04.422h9.002c.333 0 .8-.192 1.034-.428l.497-.496c.235-.236.428-.702.428-1.035v-4.681c0-.333-.193-.8-.428-1.034l-.627-.627c-.236-.236-.702-.43-1.035-.43H5.39c-.333 0-.799-.192-1.034-.428L.804 14.407c-.235-.236-.429-.702-.429-1.035V5.898c0-.333.194-.8.43-1.035l3.507-3.508c.236-.236.702-.428 1.035-.428H17.23c.333 0 .798.193 1.033.43l3.512 3.547c.234.237.426.704.426 1.037V9.03a.608.608 0 0 1-.606.606h-3.153a.608.608 0 0 1-.606-.606V7.382c0-.333-.193-.8-.428-1.035l-.627-.626c-.236-.236-.702-.43-1.035-.43H6.744c-.334 0-.799.194-1.035.43l-.496.495c-.236.236-.43.7-.433 1.035l-.035 4.68c-.002.334.188.8.424 1.036l.627.627c.236.235.701.428 1.035.428h10.4c.332 0 .797.194 1.032.43L21.775 18c.234.237.426.703.426 1.037v7.518z" fill="#FFF" mask="url(#b)"/></g><path d="M53.585 254.604c.608 0 1.105-.017 1.51-.068.447-.056.782-.152 1.034-.31.588-.37.716-.684.716-2.013 0-.338-.004-.64-.016-.91-.03-.607-.098-1.048-.251-1.366-.184-.385-.49-.591-.99-.7-.413-.088-.96-.111-1.68-.111h-6.681v5.478h6.358zm-9.544-8.116h9.768c.332 0 .629 0 .897.003.928.009 1.5.034 1.939.103.383.06.666.152.997.292.13.054.256.114.377.178.359.193.669.434.93.727.425.476.723 1.089.907 1.862.152.64.225 1.39.225 2.26 0 1.822-.19 2.695-.653 3.577a2.936 2.936 0 0 1-1.426 1.346 4.622 4.622 0 0 1-.81.282c-.384.113-.49.153-1.316.18-.452.015-1.12.027-2.167.044h-6.482v5.35H44.04v-16.204z" fill="#FFF"/><path d="M47.426 254.404h6.158c.664 0 1.123-.021 1.488-.065.427-.054.73-.144.95-.282.498-.313.623-.535.623-1.843 0-.335-.005-.634-.018-.9-.027-.62-.098-1.017-.23-1.291-.154-.321-.4-.492-.852-.59-.352-.075-.827-.106-1.638-.106h-6.48v5.077zm6.158.4h-6.558v-5.878h6.881c.842 0 1.34.035 1.723.117.572.124.92.373 1.128.807.158.329.238.76.27 1.446.013.27.017.575.017.918 0 1.375-.144 1.762-.81 2.18-.271.172-.626.28-1.114.34-.382.049-.855.07-1.537.07zm-9.344 7.69h2.786v-5.352h6.682a148.17 148.17 0 0 0 2.16-.044c.768-.025.883-.058 1.224-.16l.053-.013c.288-.075.541-.163.772-.27a2.712 2.712 0 0 0 1.334-1.258c.47-.897.63-1.775.63-3.482 0-.867-.072-1.591-.22-2.215-.175-.742-.458-1.323-.861-1.775a3.117 3.117 0 0 0-.877-.685 4.072 4.072 0 0 0-.358-.17 3.768 3.768 0 0 0-.95-.278c-.413-.064-.949-.092-1.913-.1a80.836 80.836 0 0 0-.893-.004H44.24v15.806zm3.186.4H43.84v-16.606h9.968c.334 0 .632 0 .898.004.985.008 1.536.038 1.968.105.428.067.727.17 1.045.306.136.055.268.117.395.185.38.205.712.464.985.77.449.503.76 1.14.952 1.95.154.654.23 1.408.23 2.307 0 1.78-.17 2.706-.676 3.668a3.14 3.14 0 0 1-1.52 1.435c-.254.118-.53.214-.843.293-.393.116-.541.16-1.36.188-.453.014-1.12.026-2.17.044h-6.286v5.35zM94.913 254.454c2.14 0 2.663-.175 2.663-2.466 0-2.315-.398-2.762-2.439-2.762h-7.453v5.228h7.23zm-10.415-7.966h10.937c1.002 0 1.84.077 2.531.252.762.192 1.348.502 1.785.956.752.78 1.061 1.986 1.061 3.744 0 1.025-.055 1.423-.202 2.043-.148.621-.387 1.07-.757 1.406-.455.413-1.108.654-2.028.835v.126c.253.016.49.048.707.096.4.088.741.23 1.025.43.365.257.636.607.814 1.057.18.45.267.999.267 1.651v3.61h-3.21v-2.988c0-.53-.049-.963-.158-1.31-.13-.416-.349-.709-.678-.904-.387-.23-.926-.325-1.655-.325h-7.253v5.526h-3.186V246.49z" fill="#FFF"/><path d="M87.885 254.254h7.027c2.034 0 2.463-.076 2.463-2.266 0-2.203-.313-2.562-2.237-2.562h-7.254v4.828zm7.027.4h-7.428v-5.629h7.654c2.144 0 2.638.554 2.638 2.963 0 2.46-.7 2.666-2.864 2.666zm2.715 7.84h2.812v-3.41c0-.626-.085-1.156-.252-1.577a2.063 2.063 0 0 0-.745-.967 2.626 2.626 0 0 0-.953-.399 4.634 4.634 0 0 0-.677-.093l-.188-.012v-.477l.163-.032c.938-.183 1.534-.425 1.931-.787.337-.305.56-.719.697-1.302.145-.613.197-1.006.197-1.997 0-1.774-.31-2.886-1.003-3.607-.408-.42-.96-.715-1.691-.899-.659-.167-1.47-.247-2.482-.247H84.698v15.805h2.787v-5.525h7.454c.794 0 1.35.112 1.756.352.37.22.62.552.766 1.017.112.354.166.803.166 1.37v2.786zm3.212.4h-3.611v-3.187c0-.525-.048-.934-.148-1.25-.117-.37-.305-.623-.591-.793-.339-.202-.833-.296-1.55-.296h-7.054v5.526h-3.587v-16.607h11.138c1.045 0 1.888.085 2.58.26.805.203 1.42.533 1.88 1.01.772.801 1.117 2 1.117 3.884 0 1.031-.056 1.444-.209 2.088-.157.666-.416 1.146-.816 1.508-.338.306-.787.535-1.41.714.423.093.791.248 1.094.461.397.277.694.663.886 1.146.188.476.28 1.04.28 1.726v3.81z" fill="#FFF"/><mask id="d" fill="#fff"><use xlink:href="#c"/></mask><path fill="#FFF" mask="url(#d)" d="M126.056 262.693h3.186v-16.205h-3.186z"/><path d="M126.257 262.493h2.785v-15.806h-2.785v15.806zm-.401.4h3.586v-16.606h-3.586v16.606zM175.64 262.693h-3.137l-.945-11.996c-.016-.35-.5-.429-.626-.1l-4.346 11.105a1.533 1.533 0 0 1-1.434.991h-.75c-.634 0-1.203-.39-1.43-.982l-4.416-11.06c-.125-.328-.609-.249-.624.102l-.923 11.94h-3.137l1.126-14.887a1.384 1.384 0 0 1 1.383-1.318h2.831c.586 0 1.108.368 1.304.92l3.796 10.248c.164.44.787.436.947-.006l3.644-10.227c.192-.56.718-.935 1.31-.935h2.917c.74 0 1.348.58 1.384 1.318l1.125 14.887z" fill="#FFF" mask="url(#d)"/><path d="M172.688 262.493h2.735l-1.109-14.672a1.185 1.185 0 0 0-1.184-1.133h-2.918c-.506 0-.957.322-1.12.8l-3.645 10.23a.698.698 0 0 1-.658.465h-.005a.696.696 0 0 1-.659-.457l-3.796-10.25a1.188 1.188 0 0 0-1.117-.788h-2.83c-.633 0-1.154.496-1.183 1.129l-1.11 14.676h2.735l.91-11.755a.509.509 0 0 1 .435-.488.512.512 0 0 1 .574.328l4.414 11.06c.198.513.698.856 1.245.856h.75c.551 0 1.053-.347 1.247-.862l4.348-11.108a.513.513 0 0 1 .571-.33c.252.04.43.24.44.495l.93 11.804zm3.167.4h-3.536l-.96-12.18c-.005-.097-.074-.118-.105-.123a.11.11 0 0 0-.133.077l-4.348 11.109a1.742 1.742 0 0 1-1.62 1.118h-.75c-.712 0-1.36-.447-1.618-1.11l-4.414-11.06a.12.12 0 0 0-.136-.08c-.03.005-.1.028-.103.118l-.937 12.132h-3.538l1.142-15.102a1.582 1.582 0 0 1 1.582-1.505h2.831c.668 0 1.27.423 1.493 1.053l3.795 10.247a.298.298 0 0 0 .285.197h.002c.102 0 .23-.055.283-.2l3.644-10.228a1.585 1.585 0 0 1 1.498-1.069h2.918c.847 0 1.542.663 1.583 1.51l1.142 15.097zM203.456 253.433h9.326v2.34h-9.326v4.679h11.012v2.637H200.27v-16.6h14.123v2.637h-10.937z" fill="#FFF" mask="url(#d)"/><path d="M200.47 262.89h13.797v-2.238h-11.012v-5.08h9.325v-1.939h-9.325v-4.707h10.938v-2.238H200.47v16.202zm14.197.4H200.07v-17.003h14.523v3.04h-10.937v3.906h9.325v2.739h-9.325v4.279h11.011v3.039zM127.972 162.527c-.148.056-.498.055-.578.034l-63.38-36.587 27.653-15.968-3.662-6.342-27.649 15.965-.004-73.102c.027-.156.203-.46.26-.52l63.374-36.592v31.938h7.325V9.419l63.31 36.546.32.486.004 73.173-27.574-15.96-3.668 6.34 27.582 15.964-63.313 36.559zm70.376-122.863L131.566 1.109c-2.27-1.311-5.566-1.311-7.835-.001l-66.78 38.557c-2.272 1.31-3.919 4.164-3.919 6.786v77.112c0 2.62 1.647 5.475 3.918 6.786l66.781 38.555c1.136.656 2.527.984 3.918.984s2.783-.328 3.917-.983l66.782-38.556c2.27-1.311 3.918-4.165 3.918-6.786V46.45c0-2.622-1.648-5.476-3.918-6.787z" fill="#FFF" mask="url(#d)"/><path d="M127.972 162.527c-.148.056-.498.055-.578.034l-63.38-36.587 27.653-15.968-3.662-6.342-27.649 15.965-.004-73.102c.027-.156.203-.46.26-.52l63.374-36.592v31.938h7.325V9.419l63.31 36.546.32.486.004 73.173-27.574-15.96-3.668 6.34 27.582 15.964-63.313 36.559zm70.376-122.863L131.566 1.109c-2.27-1.311-5.566-1.311-7.835-.001l-66.78 38.557c-2.272 1.31-3.919 4.164-3.919 6.786v77.112c0 2.62 1.647 5.475 3.918 6.786l66.781 38.555c1.136.656 2.527.984 3.918.984s2.783-.328 3.917-.983l66.782-38.556c2.27-1.311 3.918-4.165 3.918-6.786V46.45c0-2.622-1.648-5.476-3.918-6.787z" stroke="#0A0203" stroke-width=".25" mask="url(#d)"/><path d="M131.702 124.56c-.107.186-.39.11-.39-.104V90.498a5.87 5.87 0 0 1 2.927-5.08l29.473-17.086c.186-.107.394.101.287.287l-32.297 55.941zm-6.999-45.497l-29.53-17.117c-.186-.108-.11-.392.104-.392h64.743c.215 0 .291.284.105.392l-29.53 17.117a5.873 5.873 0 0 1-5.892 0zm-.717 45.39c0 .213-.284.29-.39.104L91.298 68.62c-.107-.186.101-.394.287-.286l29.472 17.084a5.872 5.872 0 0 1 2.928 5.081v33.954zm-49.08-69.576l52.37 90.705a.432.432 0 0 0 .747 0l52.368-90.705a.432.432 0 0 0-.374-.648H75.28c-.332 0-.54.36-.374.648z" fill="#FFF" mask="url(#d)"/><path d="M131.702 124.56c-.107.186-.39.11-.39-.104V90.498a5.87 5.87 0 0 1 2.927-5.08l29.473-17.086c.186-.107.394.101.287.287l-32.297 55.941zm-6.999-45.497l-29.53-17.117c-.186-.108-.11-.392.104-.392h64.743c.215 0 .291.284.105.392l-29.53 17.117a5.873 5.873 0 0 1-5.892 0zm-.717 45.39c0 .213-.284.29-.39.104L91.298 68.62c-.107-.186.101-.394.287-.286l29.472 17.084a5.872 5.872 0 0 1 2.928 5.081v33.954zm-49.08-69.576l52.37 90.705a.432.432 0 0 0 .747 0l52.368-90.705a.432.432 0 0 0-.374-.648H75.28c-.332 0-.54.36-.374.648z" stroke="#0A0203" stroke-width=".25" mask="url(#d)"/></g></g></svg>